Michele is a mathematics professor who just started a new job in a school with some peculiar teaching methods. After a woman in his neighborhood is murdered, Michele meets beautiful colleague Bianca, and a relationship begins between the two. Where is this relationship heading, and will Michele be able to help the police catch the murderer?

Screenshots: 
http://img805.imageshack.us/img805/4825/bscap0002w.jpg 
http://img714.imageshack.us/img714/9049/bscap0005ub.jpg 
http://img210.imageshack.us/img210/8575/bscap0003vo.jpg 
http://img39.imageshack.us/img39/2992/bscap0007sh.jpg

SUBTITLES: French, Spanish and Portuguese

www.imdb.com/title/tt0085240/ 


      Format : AVI
      Format/Info : Audio Video Interleave
      File size : 1.07 GiB
      Duration : 1h 33mn
      Overall bit rate : 1 636 Kbps
      Writing application : VirtualDubMod 1.5.1.1a (build 1155/release)
      Writing library : VirtualDubMod build 1155/release
   Video #0
      ID : 0
      Format : MPEG-4 Visual
      Format profile : AdvancedSimple@L5
      Format settings, BVOP : Yes
      Format settings, QPel : No
      Format settings, GMC : No warppoints
      Format settings, Matrix : Default (MPEG)
      Codec ID : XVID
      Codec ID/Hint : XviD
      Duration : 1h 33mn
      Bit rate : 1 434 Kbps
      Width : 720 pixels
      Height : 384 pixels
      Display aspect ratio : 1.875
      Frame rate : 25.000 fps
      Resolution : 24 bits
      Colorimetry : 4:2:0
      Scan type : Progressive
      Bits/(Pixel*Frame) : 0.208
      Stream size : 961 MiB (88%)
      Writing library : XviD 1.2.0.dev47 (UTC 2006-11-01)
   Audio #1
      ID : 1
      Format : AC-3
      Format/Info : Audio Coding 3
      Codec ID : 2000
      Duration : 1h 33mn
      Bit rate mode : Constant
      Bit rate : 192 Kbps
      Channel(s) : 2 channels
      Channel positions : L R
      Sampling rate : 48.0 KHz
      Stream size : 129 MiB (12%)
      Alignment : Split accross interleaves
      Interleave, duration : 40 ms (1.00 video frame)
      Interleave, preload duration : 500 ms